# xmcd
# 
# Track frame offsets:
#     150
#     16124
#     24544
#     35290
#     44648
#     57978
#     75614
#     86348
#     97612
#     108049
#     118935
#     128732
# 
# Disc length: 1893
# 
# Revision: 3
# Processed by: cddbd v1.5.2PL0 Copyright (c) Steve Scherf et al.
# Submitted via: fre:ac v1.0.31
# 
DISCID=8507630c
DTITLE=Varous artists - Country Classics
DYEAR=1997
DGENRE=Country
TTITLE0=billie Joe Spears - blanket on the Ground (Bowling)
TTITLE1=Johnny Cash - Country Boy (Cash)
TTITLE2=Roger Miller - King of the Road (Miller)
TTITLE3=Frankie Lain - Rawhide (Washington/Tomkin)
TTITLE4=Kenny Rogers - Ruby (don't take your love to town) (Tillis)
TTITLE5=Skeeter Davis - Always on  my mind (Jones/Thompson/Christopher)
TTITLE6=Faron young - If you ain't lovin' (Collins)
TTITLE7=Waylon Jennings - Sally was a god old girl (Howard/David)
TTITLE8=Jim Nessbintt - Running Bare (Trad.)
TTITLE9=Dolly Parton - It wasn't god who made honkytonk angels (Miller)
TTITLE10=Ned Miller - From a jack to a king (Miller)
TTITLE11=Freddy Fender - Silver wings (Haggard)
EXTD=YEAR: 1997
EXTT0=
EXTT1=
EXTT2=
EXTT3=
EXTT4=
EXTT5=
EXTT6=
EXTT7=
EXTT8=
EXTT9=
EXTT10=
EXTT11=
PLAYORDER=
